<svg width="164" height="177" viewBox="0 0 164 177" fill="none" xmlns="http://www.w3.org/2000/svg">
<rect width="163.405" height="39" rx="7" fill="#D2CCA1"/>
<path d="M64.6543 19.6543H62.375V18.7344H64.6543C65.0957 18.7344 65.4531 18.6641 65.7266 18.5234C66 18.3828 66.1992 18.1875 66.3242 17.9375C66.4531 17.6875 66.5176 17.4023 66.5176 17.082C66.5176 16.7891 66.4531 16.5137 66.3242 16.2559C66.1992 15.998 66 15.791 65.7266 15.6348C65.4531 15.4746 65.0957 15.3945 64.6543 15.3945H62.6387V23H61.5078V14.4688H64.6543C65.2988 14.4688 65.8438 14.5801 66.2891 14.8027C66.7344 15.0254 67.0723 15.334 67.3027 15.7285C67.5332 16.1191 67.6484 16.5664 67.6484 17.0703C67.6484 17.6172 67.5332 18.084 67.3027 18.4707C67.0723 18.8574 66.7344 19.1523 66.2891 19.3555C65.8438 19.5547 65.2988 19.6543 64.6543 19.6543ZM69.998 17.6562V23H68.9141V16.6602H69.9688L69.998 17.6562ZM71.9785 16.625L71.9727 17.6328C71.8828 17.6133 71.7969 17.6016 71.7148 17.5977C71.6367 17.5898 71.5469 17.5859 71.4453 17.5859C71.1953 17.5859 70.9746 17.625 70.7832 17.7031C70.5918 17.7812 70.4297 17.8906 70.2969 18.0312C70.1641 18.1719 70.0586 18.3398 69.9805 18.5352C69.9062 18.7266 69.8574 18.9375 69.834 19.168L69.5293 19.3438C69.5293 18.9609 69.5664 18.6016 69.6406 18.2656C69.7188 17.9297 69.8379 17.6328 69.998 17.375C70.1582 17.1133 70.3613 16.9102 70.6074 16.7656C70.8574 16.6172 71.1543 16.543 71.498 16.543C71.5762 16.543 71.666 16.5527 71.7676 16.5723C71.8691 16.5879 71.9395 16.6055 71.9785 16.625ZM72.5762 19.9004V19.7656C72.5762 19.3086 72.6426 18.8848 72.7754 18.4941C72.9082 18.0996 73.0996 17.7578 73.3496 17.4688C73.5996 17.1758 73.9023 16.9492 74.2578 16.7891C74.6133 16.625 75.0117 16.543 75.4531 16.543C75.8984 16.543 76.2988 16.625 76.6543 16.7891C77.0137 16.9492 77.3184 17.1758 77.5684 17.4688C77.8223 17.7578 78.0156 18.0996 78.1484 18.4941C78.2812 18.8848 78.3477 19.3086 78.3477 19.7656V19.9004C78.3477 20.3574 78.2812 20.7812 78.1484 21.1719C78.0156 21.5625 77.8223 21.9043 77.5684 22.1973C77.3184 22.4863 77.0156 22.7129 76.6602 22.877C76.3086 23.0371 75.9102 23.1172 75.4648 23.1172C75.0195 23.1172 74.6191 23.0371 74.2637 22.877C73.9082 22.7129 73.6035 22.4863 73.3496 22.1973C73.0996 21.9043 72.9082 21.5625 72.7754 21.1719C72.6426 20.7812 72.5762 20.3574 72.5762 19.9004ZM73.6602 19.7656V19.9004C73.6602 20.2168 73.6973 20.5156 73.7715 20.7969C73.8457 21.0742 73.957 21.3203 74.1055 21.5352C74.2578 21.75 74.4473 21.9199 74.6738 22.0449C74.9004 22.166 75.1641 22.2266 75.4648 22.2266C75.7617 22.2266 76.0215 22.166 76.2441 22.0449C76.4707 21.9199 76.6582 21.75 76.8066 21.5352C76.9551 21.3203 77.0664 21.0742 77.1406 20.7969C77.2188 20.5156 77.2578 20.2168 77.2578 19.9004V19.7656C77.2578 19.4531 77.2188 19.1582 77.1406 18.8809C77.0664 18.5996 76.9531 18.3516 76.8008 18.1367C76.6523 17.918 76.4648 17.7461 76.2383 17.6211C76.0156 17.4961 75.7539 17.4336 75.4531 17.4336C75.1562 17.4336 74.8945 17.4961 74.668 17.6211C74.4453 17.7461 74.2578 17.918 74.1055 18.1367C73.957 18.3516 73.8457 18.5996 73.7715 18.8809C73.6973 19.1582 73.6602 19.4531 73.6602 19.7656ZM83.7031 21.7695V14H84.793V23H83.7969L83.7031 21.7695ZM79.4375 19.9004V19.7773C79.4375 19.293 79.4961 18.8535 79.6133 18.459C79.7344 18.0605 79.9043 17.7188 80.123 17.4336C80.3457 17.1484 80.6094 16.9297 80.9141 16.7773C81.2227 16.6211 81.5664 16.543 81.9453 16.543C82.3438 16.543 82.6914 16.6133 82.9883 16.7539C83.2891 16.8906 83.543 17.0918 83.75 17.3574C83.9609 17.6191 84.127 17.9355 84.248 18.3066C84.3691 18.6777 84.4531 19.0977 84.5 19.5664V20.1055C84.457 20.5703 84.373 20.9883 84.248 21.3594C84.127 21.7305 83.9609 22.0469 83.75 22.3086C83.543 22.5703 83.2891 22.7715 82.9883 22.9121C82.6875 23.0488 82.3359 23.1172 81.9336 23.1172C81.5625 23.1172 81.2227 23.0371 80.9141 22.877C80.6094 22.7168 80.3457 22.4922 80.123 22.2031C79.9043 21.9141 79.7344 21.5742 79.6133 21.1836C79.4961 20.7891 79.4375 20.3613 79.4375 19.9004ZM80.5273 19.7773V19.9004C80.5273 20.2168 80.5586 20.5137 80.6211 20.791C80.6875 21.0684 80.7891 21.3125 80.9258 21.5234C81.0625 21.7344 81.2363 21.9004 81.4473 22.0215C81.6582 22.1387 81.9102 22.1973 82.2031 22.1973C82.5625 22.1973 82.8574 22.1211 83.0879 21.9688C83.3223 21.8164 83.5098 21.6152 83.6504 21.3652C83.791 21.1152 83.9004 20.8438 83.9785 20.5508V19.1387C83.9316 18.9238 83.8633 18.7168 83.7734 18.5176C83.6875 18.3145 83.5742 18.1348 83.4336 17.9785C83.2969 17.8184 83.127 17.6914 82.9238 17.5977C82.7246 17.5039 82.4883 17.457 82.2148 17.457C81.918 17.457 81.6621 17.5195 81.4473 17.6445C81.2363 17.7656 81.0625 17.9336 80.9258 18.1484C80.7891 18.3594 80.6875 18.6055 80.6211 18.8867C80.5586 19.1641 80.5273 19.4609 80.5273 19.7773ZM90.3594 21.5352V16.6602H91.4492V23H90.4121L90.3594 21.5352ZM90.5645 20.1992L91.0156 20.1875C91.0156 20.6094 90.9707 21 90.8809 21.3594C90.7949 21.7148 90.6543 22.0234 90.459 22.2852C90.2637 22.5469 90.0078 22.752 89.6914 22.9004C89.375 23.0449 88.9902 23.1172 88.5371 23.1172C88.2285 23.1172 87.9453 23.0723 87.6875 22.9824C87.4336 22.8926 87.2148 22.7539 87.0312 22.5664C86.8477 22.3789 86.7051 22.1348 86.6035 21.834C86.5059 21.5332 86.457 21.1719 86.457 20.75V16.6602H87.541V20.7617C87.541 21.0469 87.5723 21.2832 87.6348 21.4707C87.7012 21.6543 87.7891 21.8008 87.8984 21.9102C88.0117 22.0156 88.1367 22.0898 88.2734 22.1328C88.4141 22.1758 88.5586 22.1973 88.707 22.1973C89.168 22.1973 89.5332 22.1094 89.8027 21.9336C90.0723 21.7539 90.2656 21.5137 90.3828 21.2129C90.5039 20.9082 90.5645 20.5703 90.5645 20.1992ZM95.6387 22.2266C95.8965 22.2266 96.1348 22.1738 96.3535 22.0684C96.5723 21.9629 96.752 21.8184 96.8926 21.6348C97.0332 21.4473 97.1133 21.2344 97.1328 20.9961H98.1641C98.1445 21.3711 98.0176 21.7207 97.7832 22.0449C97.5527 22.3652 97.25 22.625 96.875 22.8242C96.5 23.0195 96.0879 23.1172 95.6387 23.1172C95.1621 23.1172 94.7461 23.0332 94.3906 22.8652C94.0391 22.6973 93.7461 22.4668 93.5117 22.1738C93.2812 21.8809 93.1074 21.5449 92.9902 21.166C92.877 20.7832 92.8203 20.3789 92.8203 19.9531V19.707C92.8203 19.2812 92.877 18.8789 92.9902 18.5C93.1074 18.1172 93.2812 17.7793 93.5117 17.4863C93.7461 17.1934 94.0391 16.9629 94.3906 16.7949C94.7461 16.627 95.1621 16.543 95.6387 16.543C96.1348 16.543 96.5684 16.6445 96.9395 16.8477C97.3105 17.0469 97.6016 17.3203 97.8125 17.668C98.0273 18.0117 98.1445 18.4023 98.1641 18.8398H97.1328C97.1133 18.5781 97.0391 18.3418 96.9102 18.1309C96.7852 17.9199 96.6133 17.752 96.3945 17.627C96.1797 17.498 95.9277 17.4336 95.6387 17.4336C95.3066 17.4336 95.0273 17.5 94.8008 17.6328C94.5781 17.7617 94.4004 17.9375 94.2676 18.1602C94.1387 18.3789 94.0449 18.623 93.9863 18.8926C93.9316 19.1582 93.9043 19.4297 93.9043 19.707V19.9531C93.9043 20.2305 93.9316 20.5039 93.9863 20.7734C94.041 21.043 94.1328 21.2871 94.2617 21.5059C94.3945 21.7246 94.5723 21.9004 94.7949 22.0332C95.0215 22.1621 95.3027 22.2266 95.6387 22.2266ZM102.037 16.6602V17.4922H98.6094V16.6602H102.037ZM99.7695 15.1191H100.854V21.4297C100.854 21.6445 100.887 21.8066 100.953 21.916C101.02 22.0254 101.105 22.0977 101.211 22.1328C101.316 22.168 101.43 22.1855 101.551 22.1855C101.641 22.1855 101.734 22.1777 101.832 22.1621C101.934 22.1426 102.01 22.127 102.061 22.1152L102.066 23C101.98 23.0273 101.867 23.0527 101.727 23.0762C101.59 23.1035 101.424 23.1172 101.229 23.1172C100.963 23.1172 100.719 23.0645 100.496 22.959C100.273 22.8535 100.096 22.6777 99.9629 22.4316C99.834 22.1816 99.7695 21.8457 99.7695 21.4238V15.1191Z" fill="#575757"/>
<rect x="44" y="46" width="119.405" height="39" rx="7" fill="#387780"/>
<path d="M86.7557 60.4688V69H85.619L81.3241 62.4199V69H80.1932V60.4688H81.3241L85.6366 67.0664V60.4688H86.7557ZM91.2264 69.1172C90.785 69.1172 90.3846 69.043 90.0252 68.8945C89.6698 68.7422 89.3631 68.5293 89.1053 68.2559C88.8514 67.9824 88.6561 67.6582 88.5194 67.2832C88.3827 66.9082 88.3143 66.498 88.3143 66.0527V65.8066C88.3143 65.291 88.3905 64.832 88.5428 64.4297C88.6952 64.0234 88.9022 63.6797 89.1639 63.3984C89.4256 63.1172 89.7225 62.9043 90.0545 62.7598C90.3866 62.6152 90.7303 62.543 91.0858 62.543C91.5389 62.543 91.9295 62.6211 92.2577 62.7773C92.5897 62.9336 92.8612 63.1523 93.0721 63.4336C93.2831 63.7109 93.4393 64.0391 93.5409 64.418C93.6424 64.793 93.6932 65.2031 93.6932 65.6484V66.1348H88.9588V65.25H92.6092V65.168C92.5936 64.8867 92.535 64.6133 92.4334 64.3477C92.3358 64.082 92.1795 63.8633 91.9647 63.6914C91.7499 63.5195 91.4569 63.4336 91.0858 63.4336C90.8397 63.4336 90.6131 63.4863 90.4061 63.5918C90.1991 63.6934 90.0213 63.8457 89.8729 64.0488C89.7245 64.252 89.6092 64.5 89.5272 64.793C89.4452 65.0859 89.4041 65.4238 89.4041 65.8066V66.0527C89.4041 66.3535 89.4452 66.6367 89.5272 66.9023C89.6131 67.1641 89.7362 67.3945 89.8963 67.5938C90.0604 67.793 90.2577 67.9492 90.4881 68.0625C90.7225 68.1758 90.9881 68.2324 91.285 68.2324C91.6678 68.2324 91.992 68.1543 92.2577 67.998C92.5233 67.8418 92.7557 67.6328 92.9549 67.3711L93.6112 67.8926C93.4745 68.0996 93.3006 68.2969 93.0897 68.4844C92.8788 68.6719 92.619 68.8242 92.3104 68.9414C92.0057 69.0586 91.6444 69.1172 91.2264 69.1172ZM98.8377 67.5352V62.6602H99.9276V69H98.8905L98.8377 67.5352ZM99.0428 66.1992L99.494 66.1875C99.494 66.6094 99.4491 67 99.3592 67.3594C99.2733 67.7148 99.1327 68.0234 98.9374 68.2852C98.742 68.5469 98.4862 68.752 98.1698 68.9004C97.8534 69.0449 97.4686 69.1172 97.0155 69.1172C96.7069 69.1172 96.4237 69.0723 96.1659 68.9824C95.912 68.8926 95.6932 68.7539 95.5096 68.5664C95.326 68.3789 95.1834 68.1348 95.0819 67.834C94.9842 67.5332 94.9354 67.1719 94.9354 66.75V62.6602H96.0194V66.7617C96.0194 67.0469 96.0506 67.2832 96.1131 67.4707C96.1795 67.6543 96.2674 67.8008 96.3768 67.9102C96.4901 68.0156 96.6151 68.0898 96.7518 68.1328C96.8924 68.1758 97.037 68.1973 97.1854 68.1973C97.6463 68.1973 98.0116 68.1094 98.2811 67.9336C98.5506 67.7539 98.744 67.5137 98.8612 67.2129C98.9823 66.9082 99.0428 66.5703 99.0428 66.1992ZM102.664 63.6562V69H101.58V62.6602H102.635L102.664 63.6562ZM104.644 62.625L104.639 63.6328C104.549 63.6133 104.463 63.6016 104.381 63.5977C104.303 63.5898 104.213 63.5859 104.111 63.5859C103.861 63.5859 103.64 63.625 103.449 63.7031C103.258 63.7812 103.096 63.8906 102.963 64.0312C102.83 64.1719 102.724 64.3398 102.646 64.5352C102.572 64.7266 102.523 64.9375 102.5 65.168L102.195 65.3438C102.195 64.9609 102.232 64.6016 102.306 64.2656C102.385 63.9297 102.504 63.6328 102.664 63.375C102.824 63.1133 103.027 62.9102 103.273 62.7656C103.523 62.6172 103.82 62.543 104.164 62.543C104.242 62.543 104.332 62.5527 104.433 62.5723C104.535 62.5879 104.605 62.6055 104.644 62.625ZM105.242 65.9004V65.7656C105.242 65.3086 105.308 64.8848 105.441 64.4941C105.574 64.0996 105.765 63.7578 106.015 63.4688C106.265 63.1758 106.568 62.9492 106.924 62.7891C107.279 62.625 107.678 62.543 108.119 62.543C108.564 62.543 108.965 62.625 109.32 62.7891C109.68 62.9492 109.984 63.1758 110.234 63.4688C110.488 63.7578 110.681 64.0996 110.814 64.4941C110.947 64.8848 111.014 65.3086 111.014 65.7656V65.9004C111.014 66.3574 110.947 66.7812 110.814 67.1719C110.681 67.5625 110.488 67.9043 110.234 68.1973C109.984 68.4863 109.681 68.7129 109.326 68.877C108.974 69.0371 108.576 69.1172 108.131 69.1172C107.685 69.1172 107.285 69.0371 106.93 68.877C106.574 68.7129 106.269 68.4863 106.015 68.1973C105.765 67.9043 105.574 67.5625 105.441 67.1719C105.308 66.7812 105.242 66.3574 105.242 65.9004ZM106.326 65.7656V65.9004C106.326 66.2168 106.363 66.5156 106.437 66.7969C106.512 67.0742 106.623 67.3203 106.771 67.5352C106.924 67.75 107.113 67.9199 107.34 68.0449C107.566 68.166 107.83 68.2266 108.131 68.2266C108.428 68.2266 108.687 68.166 108.91 68.0449C109.137 67.9199 109.324 67.75 109.473 67.5352C109.621 67.3203 109.732 67.0742 109.806 66.7969C109.885 66.5156 109.924 66.2168 109.924 65.9004V65.7656C109.924 65.4531 109.885 65.1582 109.806 64.8809C109.732 64.5996 109.619 64.3516 109.467 64.1367C109.318 63.918 109.131 63.7461 108.904 63.6211C108.681 63.4961 108.42 63.4336 108.119 63.4336C107.822 63.4336 107.56 63.4961 107.334 63.6211C107.111 63.7461 106.924 63.918 106.771 64.1367C106.623 64.3516 106.512 64.5996 106.437 64.8809C106.363 65.1582 106.326 65.4531 106.326 65.7656ZM113.457 64.0137V69H112.373V62.6602H113.398L113.457 64.0137ZM113.199 65.5898L112.748 65.5723C112.752 65.1387 112.816 64.7383 112.941 64.3711C113.066 64 113.242 63.6777 113.469 63.4043C113.695 63.1309 113.965 62.9199 114.277 62.7715C114.594 62.6191 114.943 62.543 115.326 62.543C115.639 62.543 115.92 62.5859 116.17 62.6719C116.42 62.7539 116.633 62.8867 116.808 63.0703C116.988 63.2539 117.125 63.4922 117.219 63.7852C117.312 64.0742 117.359 64.4277 117.359 64.8457V69H116.269V64.834C116.269 64.502 116.221 64.2363 116.123 64.0371C116.025 63.834 115.883 63.6875 115.695 63.5977C115.508 63.5039 115.277 63.457 115.004 63.457C114.734 63.457 114.488 63.5137 114.265 63.627C114.047 63.7402 113.857 63.8965 113.697 64.0957C113.541 64.2949 113.418 64.5234 113.328 64.7812C113.242 65.0352 113.199 65.3047 113.199 65.5898ZM125.428 60.4219V69H124.344V61.7754L122.158 62.5723V61.5938L125.258 60.4219H125.428Z" fill="#DBD4D3"/>
<rect x="44" y="92" width="119.405" height="39" rx="7" fill="#387780"/>
<path d="M86.7557 106.469V115H85.619L81.3241 108.42V115H80.1932V106.469H81.3241L85.6366 113.066V106.469H86.7557ZM91.2264 115.117C90.785 115.117 90.3846 115.043 90.0252 114.895C89.6698 114.742 89.3631 114.529 89.1053 114.256C88.8514 113.982 88.6561 113.658 88.5194 113.283C88.3827 112.908 88.3143 112.498 88.3143 112.053V111.807C88.3143 111.291 88.3905 110.832 88.5428 110.43C88.6952 110.023 88.9022 109.68 89.1639 109.398C89.4256 109.117 89.7225 108.904 90.0545 108.76C90.3866 108.615 90.7303 108.543 91.0858 108.543C91.5389 108.543 91.9295 108.621 92.2577 108.777C92.5897 108.934 92.8612 109.152 93.0721 109.434C93.2831 109.711 93.4393 110.039 93.5409 110.418C93.6424 110.793 93.6932 111.203 93.6932 111.648V112.135H88.9588V111.25H92.6092V111.168C92.5936 110.887 92.535 110.613 92.4334 110.348C92.3358 110.082 92.1795 109.863 91.9647 109.691C91.7499 109.52 91.4569 109.434 91.0858 109.434C90.8397 109.434 90.6131 109.486 90.4061 109.592C90.1991 109.693 90.0213 109.846 89.8729 110.049C89.7245 110.252 89.6092 110.5 89.5272 110.793C89.4452 111.086 89.4041 111.424 89.4041 111.807V112.053C89.4041 112.354 89.4452 112.637 89.5272 112.902C89.6131 113.164 89.7362 113.395 89.8963 113.594C90.0604 113.793 90.2577 113.949 90.4881 114.062C90.7225 114.176 90.9881 114.232 91.285 114.232C91.6678 114.232 91.992 114.154 92.2577 113.998C92.5233 113.842 92.7557 113.633 92.9549 113.371L93.6112 113.893C93.4745 114.1 93.3006 114.297 93.0897 114.484C92.8788 114.672 92.619 114.824 92.3104 114.941C92.0057 115.059 91.6444 115.117 91.2264 115.117ZM98.8377 113.535V108.66H99.9276V115H98.8905L98.8377 113.535ZM99.0428 112.199L99.494 112.188C99.494 112.609 99.4491 113 99.3592 113.359C99.2733 113.715 99.1327 114.023 98.9374 114.285C98.742 114.547 98.4862 114.752 98.1698 114.9C97.8534 115.045 97.4686 115.117 97.0155 115.117C96.7069 115.117 96.4237 115.072 96.1659 114.982C95.912 114.893 95.6932 114.754 95.5096 114.566C95.326 114.379 95.1834 114.135 95.0819 113.834C94.9842 113.533 94.9354 113.172 94.9354 112.75V108.66H96.0194V112.762C96.0194 113.047 96.0506 113.283 96.1131 113.471C96.1795 113.654 96.2674 113.801 96.3768 113.91C96.4901 114.016 96.6151 114.09 96.7518 114.133C96.8924 114.176 97.037 114.197 97.1854 114.197C97.6463 114.197 98.0116 114.109 98.2811 113.934C98.5506 113.754 98.744 113.514 98.8612 113.213C98.9823 112.908 99.0428 112.57 99.0428 112.199ZM102.664 109.656V115H101.58V108.66H102.635L102.664 109.656ZM104.644 108.625L104.639 109.633C104.549 109.613 104.463 109.602 104.381 109.598C104.303 109.59 104.213 109.586 104.111 109.586C103.861 109.586 103.64 109.625 103.449 109.703C103.258 109.781 103.096 109.891 102.963 110.031C102.83 110.172 102.724 110.34 102.646 110.535C102.572 110.727 102.523 110.938 102.5 111.168L102.195 111.344C102.195 110.961 102.232 110.602 102.306 110.266C102.385 109.93 102.504 109.633 102.664 109.375C102.824 109.113 103.027 108.91 103.273 108.766C103.523 108.617 103.82 108.543 104.164 108.543C104.242 108.543 104.332 108.553 104.433 108.572C104.535 108.588 104.605 108.605 104.644 108.625ZM105.242 111.9V111.766C105.242 111.309 105.308 110.885 105.441 110.494C105.574 110.1 105.765 109.758 106.015 109.469C106.265 109.176 106.568 108.949 106.924 108.789C107.279 108.625 107.678 108.543 108.119 108.543C108.564 108.543 108.965 108.625 109.32 108.789C109.68 108.949 109.984 109.176 110.234 109.469C110.488 109.758 110.681 110.1 110.814 110.494C110.947 110.885 111.014 111.309 111.014 111.766V111.9C111.014 112.357 110.947 112.781 110.814 113.172C110.681 113.562 110.488 113.904 110.234 114.197C109.984 114.486 109.681 114.713 109.326 114.877C108.974 115.037 108.576 115.117 108.131 115.117C107.685 115.117 107.285 115.037 106.93 114.877C106.574 114.713 106.269 114.486 106.015 114.197C105.765 113.904 105.574 113.562 105.441 113.172C105.308 112.781 105.242 112.357 105.242 111.9ZM106.326 111.766V111.9C106.326 112.217 106.363 112.516 106.437 112.797C106.512 113.074 106.623 113.32 106.771 113.535C106.924 113.75 107.113 113.92 107.34 114.045C107.566 114.166 107.83 114.227 108.131 114.227C108.428 114.227 108.687 114.166 108.91 114.045C109.137 113.92 109.324 113.75 109.473 113.535C109.621 113.32 109.732 113.074 109.806 112.797C109.885 112.516 109.924 112.217 109.924 111.9V111.766C109.924 111.453 109.885 111.158 109.806 110.881C109.732 110.6 109.619 110.352 109.467 110.137C109.318 109.918 109.131 109.746 108.904 109.621C108.681 109.496 108.42 109.434 108.119 109.434C107.822 109.434 107.56 109.496 107.334 109.621C107.111 109.746 106.924 109.918 106.771 110.137C106.623 110.352 106.512 110.6 106.437 110.881C106.363 111.158 106.326 111.453 106.326 111.766ZM113.457 110.014V115H112.373V108.66H113.398L113.457 110.014ZM113.199 111.59L112.748 111.572C112.752 111.139 112.816 110.738 112.941 110.371C113.066 110 113.242 109.678 113.469 109.404C113.695 109.131 113.965 108.92 114.277 108.771C114.594 108.619 114.943 108.543 115.326 108.543C115.639 108.543 115.92 108.586 116.17 108.672C116.42 108.754 116.633 108.887 116.808 109.07C116.988 109.254 117.125 109.492 117.219 109.785C117.312 110.074 117.359 110.428 117.359 110.846V115H116.269V110.834C116.269 110.502 116.221 110.236 116.123 110.037C116.025 109.834 115.883 109.688 115.695 109.598C115.508 109.504 115.277 109.457 115.004 109.457C114.734 109.457 114.488 109.514 114.265 109.627C114.047 109.74 113.857 109.896 113.697 110.096C113.541 110.295 113.418 110.523 113.328 110.781C113.242 111.035 113.199 111.305 113.199 111.59ZM127.455 114.109V115H121.871V114.221L124.666 111.109C125.01 110.727 125.275 110.402 125.463 110.137C125.654 109.867 125.787 109.627 125.861 109.416C125.939 109.201 125.978 108.982 125.978 108.76C125.978 108.479 125.92 108.225 125.803 107.998C125.689 107.768 125.521 107.584 125.299 107.447C125.076 107.311 124.806 107.242 124.49 107.242C124.111 107.242 123.795 107.316 123.541 107.465C123.291 107.609 123.103 107.812 122.978 108.074C122.853 108.336 122.791 108.637 122.791 108.977H121.707C121.707 108.496 121.812 108.057 122.023 107.658C122.234 107.26 122.547 106.943 122.961 106.709C123.375 106.471 123.885 106.352 124.49 106.352C125.029 106.352 125.49 106.447 125.873 106.639C126.256 106.826 126.549 107.092 126.752 107.436C126.959 107.775 127.062 108.174 127.062 108.631C127.062 108.881 127.019 109.135 126.933 109.393C126.851 109.646 126.736 109.9 126.588 110.154C126.443 110.408 126.273 110.658 126.078 110.904C125.887 111.15 125.681 111.393 125.463 111.631L123.178 114.109H127.455Z" fill="#DBD4D3"/>
<rect x="44" y="138" width="119.405" height="39" rx="7" fill="#387780"/>
<path d="M86.7557 152.469V161H85.619L81.3241 154.42V161H80.1932V152.469H81.3241L85.6366 159.066V152.469H86.7557ZM91.2264 161.117C90.785 161.117 90.3846 161.043 90.0252 160.895C89.6698 160.742 89.3631 160.529 89.1053 160.256C88.8514 159.982 88.6561 159.658 88.5194 159.283C88.3827 158.908 88.3143 158.498 88.3143 158.053V157.807C88.3143 157.291 88.3905 156.832 88.5428 156.43C88.6952 156.023 88.9022 155.68 89.1639 155.398C89.4256 155.117 89.7225 154.904 90.0545 154.76C90.3866 154.615 90.7303 154.543 91.0858 154.543C91.5389 154.543 91.9295 154.621 92.2577 154.777C92.5897 154.934 92.8612 155.152 93.0721 155.434C93.2831 155.711 93.4393 156.039 93.5409 156.418C93.6424 156.793 93.6932 157.203 93.6932 157.648V158.135H88.9588V157.25H92.6092V157.168C92.5936 156.887 92.535 156.613 92.4334 156.348C92.3358 156.082 92.1795 155.863 91.9647 155.691C91.7499 155.52 91.4569 155.434 91.0858 155.434C90.8397 155.434 90.6131 155.486 90.4061 155.592C90.1991 155.693 90.0213 155.846 89.8729 156.049C89.7245 156.252 89.6092 156.5 89.5272 156.793C89.4452 157.086 89.4041 157.424 89.4041 157.807V158.053C89.4041 158.354 89.4452 158.637 89.5272 158.902C89.6131 159.164 89.7362 159.395 89.8963 159.594C90.0604 159.793 90.2577 159.949 90.4881 160.062C90.7225 160.176 90.9881 160.232 91.285 160.232C91.6678 160.232 91.992 160.154 92.2577 159.998C92.5233 159.842 92.7557 159.633 92.9549 159.371L93.6112 159.893C93.4745 160.1 93.3006 160.297 93.0897 160.484C92.8788 160.672 92.619 160.824 92.3104 160.941C92.0057 161.059 91.6444 161.117 91.2264 161.117ZM98.8377 159.535V154.66H99.9276V161H98.8905L98.8377 159.535ZM99.0428 158.199L99.494 158.188C99.494 158.609 99.4491 159 99.3592 159.359C99.2733 159.715 99.1327 160.023 98.9374 160.285C98.742 160.547 98.4862 160.752 98.1698 160.9C97.8534 161.045 97.4686 161.117 97.0155 161.117C96.7069 161.117 96.4237 161.072 96.1659 160.982C95.912 160.893 95.6932 160.754 95.5096 160.566C95.326 160.379 95.1834 160.135 95.0819 159.834C94.9842 159.533 94.9354 159.172 94.9354 158.75V154.66H96.0194V158.762C96.0194 159.047 96.0506 159.283 96.1131 159.471C96.1795 159.654 96.2674 159.801 96.3768 159.91C96.4901 160.016 96.6151 160.09 96.7518 160.133C96.8924 160.176 97.037 160.197 97.1854 160.197C97.6463 160.197 98.0116 160.109 98.2811 159.934C98.5506 159.754 98.744 159.514 98.8612 159.213C98.9823 158.908 99.0428 158.57 99.0428 158.199ZM102.664 155.656V161H101.58V154.66H102.635L102.664 155.656ZM104.644 154.625L104.639 155.633C104.549 155.613 104.463 155.602 104.381 155.598C104.303 155.59 104.213 155.586 104.111 155.586C103.861 155.586 103.64 155.625 103.449 155.703C103.258 155.781 103.096 155.891 102.963 156.031C102.83 156.172 102.724 156.34 102.646 156.535C102.572 156.727 102.523 156.938 102.5 157.168L102.195 157.344C102.195 156.961 102.232 156.602 102.306 156.266C102.385 155.93 102.504 155.633 102.664 155.375C102.824 155.113 103.027 154.91 103.273 154.766C103.523 154.617 103.82 154.543 104.164 154.543C104.242 154.543 104.332 154.553 104.433 154.572C104.535 154.588 104.605 154.605 104.644 154.625ZM105.242 157.9V157.766C105.242 157.309 105.308 156.885 105.441 156.494C105.574 156.1 105.765 155.758 106.015 155.469C106.265 155.176 106.568 154.949 106.924 154.789C107.279 154.625 107.678 154.543 108.119 154.543C108.564 154.543 108.965 154.625 109.32 154.789C109.68 154.949 109.984 155.176 110.234 155.469C110.488 155.758 110.681 156.1 110.814 156.494C110.947 156.885 111.014 157.309 111.014 157.766V157.9C111.014 158.357 110.947 158.781 110.814 159.172C110.681 159.562 110.488 159.904 110.234 160.197C109.984 160.486 109.681 160.713 109.326 160.877C108.974 161.037 108.576 161.117 108.131 161.117C107.685 161.117 107.285 161.037 106.93 160.877C106.574 160.713 106.269 160.486 106.015 160.197C105.765 159.904 105.574 159.562 105.441 159.172C105.308 158.781 105.242 158.357 105.242 157.9ZM106.326 157.766V157.9C106.326 158.217 106.363 158.516 106.437 158.797C106.512 159.074 106.623 159.32 106.771 159.535C106.924 159.75 107.113 159.92 107.34 160.045C107.566 160.166 107.83 160.227 108.131 160.227C108.428 160.227 108.687 160.166 108.91 160.045C109.137 159.92 109.324 159.75 109.473 159.535C109.621 159.32 109.732 159.074 109.806 158.797C109.885 158.516 109.924 158.217 109.924 157.9V157.766C109.924 157.453 109.885 157.158 109.806 156.881C109.732 156.6 109.619 156.352 109.467 156.137C109.318 155.918 109.131 155.746 108.904 155.621C108.681 155.496 108.42 155.434 108.119 155.434C107.822 155.434 107.56 155.496 107.334 155.621C107.111 155.746 106.924 155.918 106.771 156.137C106.623 156.352 106.512 156.6 106.437 156.881C106.363 157.158 106.326 157.453 106.326 157.766ZM113.457 156.014V161H112.373V154.66H113.398L113.457 156.014ZM113.199 157.59L112.748 157.572C112.752 157.139 112.816 156.738 112.941 156.371C113.066 156 113.242 155.678 113.469 155.404C113.695 155.131 113.965 154.92 114.277 154.771C114.594 154.619 114.943 154.543 115.326 154.543C115.639 154.543 115.92 154.586 116.17 154.672C116.42 154.754 116.633 154.887 116.808 155.07C116.988 155.254 117.125 155.492 117.219 155.785C117.312 156.074 117.359 156.428 117.359 156.846V161H116.269V156.834C116.269 156.502 116.221 156.236 116.123 156.037C116.025 155.834 115.883 155.688 115.695 155.598C115.508 155.504 115.277 155.457 115.004 155.457C114.734 155.457 114.488 155.514 114.265 155.627C114.047 155.74 113.857 155.896 113.697 156.096C113.541 156.295 113.418 156.523 113.328 156.781C113.242 157.035 113.199 157.305 113.199 157.59ZM123.447 156.201H124.221C124.599 156.201 124.912 156.139 125.158 156.014C125.408 155.885 125.594 155.711 125.715 155.492C125.84 155.27 125.902 155.02 125.902 154.742C125.902 154.414 125.848 154.139 125.738 153.916C125.629 153.693 125.465 153.525 125.246 153.412C125.027 153.299 124.75 153.242 124.414 153.242C124.109 153.242 123.84 153.303 123.605 153.424C123.375 153.541 123.193 153.709 123.06 153.928C122.931 154.146 122.867 154.404 122.867 154.701H121.783C121.783 154.268 121.892 153.873 122.111 153.518C122.33 153.162 122.637 152.879 123.031 152.668C123.43 152.457 123.89 152.352 124.414 152.352C124.93 152.352 125.381 152.443 125.767 152.627C126.154 152.807 126.455 153.076 126.67 153.436C126.885 153.791 126.992 154.234 126.992 154.766C126.992 154.98 126.941 155.211 126.84 155.457C126.742 155.699 126.588 155.926 126.377 156.137C126.17 156.348 125.9 156.521 125.568 156.658C125.236 156.791 124.838 156.857 124.373 156.857H123.447V156.201ZM123.447 157.092V156.441H124.373C124.916 156.441 125.365 156.506 125.721 156.635C126.076 156.764 126.355 156.936 126.558 157.15C126.765 157.365 126.91 157.602 126.992 157.859C127.078 158.113 127.121 158.367 127.121 158.621C127.121 159.02 127.053 159.373 126.916 159.682C126.783 159.99 126.594 160.252 126.348 160.467C126.105 160.682 125.82 160.844 125.492 160.953C125.164 161.062 124.806 161.117 124.42 161.117C124.049 161.117 123.699 161.064 123.371 160.959C123.047 160.854 122.76 160.701 122.51 160.502C122.26 160.299 122.064 160.051 121.924 159.758C121.783 159.461 121.713 159.123 121.713 158.744H122.797C122.797 159.041 122.861 159.301 122.99 159.523C123.123 159.746 123.31 159.92 123.553 160.045C123.799 160.166 124.088 160.227 124.42 160.227C124.752 160.227 125.037 160.17 125.275 160.057C125.517 159.939 125.703 159.764 125.832 159.529C125.965 159.295 126.031 159 126.031 158.645C126.031 158.289 125.957 157.998 125.808 157.771C125.66 157.541 125.449 157.371 125.176 157.262C124.906 157.148 124.588 157.092 124.221 157.092H123.447Z" fill="#DBD4D3"/>
<line x1="19.5" y1="39" x2="19.5" y2="159" stroke="#C4C4C4"/>
<line x1="44" y1="158.5" x2="19" y2="158.5" stroke="#C4C4C4"/>
<line x1="44" y1="112.5" x2="19" y2="112.5" stroke="#C4C4C4"/>
<line x1="44" y1="66.5" x2="19" y2="66.5" stroke="#C4C4C4"/>
</svg>
